<svg id="Layer_1" data-name="Layer 1" xmlns="http://www.w3.org/2000/svg" viewBox="0 0 84 96"><defs><style>.cls-1{fill:#64ffda;}.cls-2{stroke:#64ffda;}</style></defs><title>Artboard 1</title><g id="Logo"><path class="cls-1" d="M27.05,63V32.4h8.66l4.61,12.53c.28.84.55,1.72.8,2.63s.52,1.82.8,2.73h.19c.28-.91.55-1.82.8-2.73s.52-1.79.8-2.63L48.13,32.4h8.66V63H49.45V54c0-.78,0-1.64.12-2.59s.16-1.9.26-2.89.2-1.95.33-2.9.23-1.78.33-2.54H50.3l-2.54,7.35L44,60.51H39.66L35.9,50.39,33.45,43h-.19c.09.76.2,1.6.33,2.54s.23,1.91.33,2.9.18,2,.26,2.89.11,1.81.11,2.59v9Z"/><polygon id="Shape" class="cls-2" points="42 3 3 25 3 70 42 93 81 71 81 26 42 3"/></g></svg>