<?xml version="1.0" encoding="utf-8"?>
<!-- Generator: Adobe Illustrator 22.0.0, SVG Export Plug-In . SVG Version: 6.00 Build 0)  -->
<svg version="1.1" id="Layer_1" xmlns="http://www.w3.org/2000/svg" xmlns:xlink="http://www.w3.org/1999/xlink" x="0px" y="0px"
	 viewBox="0 0 79 91.2" style="enable-background:new 0 0 79 91.2;" xml:space="preserve">
<style type="text/css">
	.st0{fill:none;stroke:#000000;}
	.st1{fill:#64FFDA;}
</style>
<title>LogoM</title>
<g id="Layer_2_1_">
	<g id="Layer_1-2">
		<g id="Logo">
			<g id="Shape">
				<path d="M42.1,2.1c-1.4-0.8-3.8-0.9-5.2,0L3.1,21.1c-1.4,0.8-2.6,2.8-2.6,4.5v39c0,1.7,1.2,3.7,2.6,4.5l33.8,20
					c1.4,0.8,3.8,0.9,5.2,0l33.8-19.1c1.4-0.8,2.6-2.8,2.6-4.5v-39c0-1.6-1.2-3.7-2.6-4.5L42.1,2.1z"/>
				<path class="st0" d="M42.1,2.1c-1.4-0.8-3.8-0.9-5.2,0L3.1,21.1c-1.4,0.8-2.6,2.8-2.6,4.5v39c0,1.7,1.2,3.7,2.6,4.5l33.8,20
					c1.4,0.8,3.8,0.9,5.2,0l33.8-19.1c1.4-0.8,2.6-2.8,2.6-4.5v-39c0-1.6-1.2-3.7-2.6-4.5L42.1,2.1z"/>
			</g>
			<path class="st1" d="M24.5,60.6V30h8.7l4.6,12.5c0.3,0.8,0.5,1.7,0.8,2.6s0.5,1.8,0.8,2.7h0.2c0.3-0.9,0.5-1.8,0.8-2.7
				s0.5-1.8,0.8-2.6L45.6,30h8.7v30.6H47v-9c0-0.8,0-1.7,0.1-2.6s0.2-1.9,0.3-2.9s0.2-2,0.3-2.9s0.2-1.8,0.3-2.5h-0.2L45.3,48
				l-3.8,10.1h-4.3L33.4,48L31,40.6h-0.2c0.1,0.8,0.2,1.6,0.3,2.5s0.2,1.9,0.3,2.9s0.1,1.9,0.2,2.9s0.1,1.8,0.1,2.6v9L24.5,60.6z"/>
		</g>
	</g>
</g>
</svg>
